<svg width="400" height="400" viewBox="0 0 400 400" fill="none" xmlns="http://www.w3.org/2000/svg">
  <!-- Doctor's coat -->
  <path d="M150 150C150 150 130 200 130 250C130 300 150 350 200 350C250 350 270 300 270 250C270 200 250 150 250 150L150 150Z" fill="white" stroke="#e5e5e5" stroke-width="2"/>
  
  <!-- Doctor's head -->
  <circle cx="200" cy="120" r="50" fill="#f8d8c0"/>
  
  <!-- Doctor's hair -->
  <path d="M160 100C160 80 180 70 200 70C220 70 240 80 240 100C240 110 230 120 230 120C230 120 220 110 200 110C180 110 170 120 170 120C170 120 160 110 160 100Z" fill="#6b46c1"/>
  
  <!-- Doctor's face features -->
  <circle cx="185" cy="110" r="5" fill="#333"/>
  <circle cx="215" cy="110" r="5" fill="#333"/>
  <path d="M190 130C190 130 200 140 210 130" stroke="#333" stroke-width="2" stroke-linecap="round"/>
  
  <!-- Stethoscope -->
  <path d="M180 180C180 180 170 200 190 220" stroke="#6b46c1" stroke-width="4" stroke-linecap="round"/>
  <circle cx="190" cy="220" r="8" fill="#ec4899"/>
  
  <!-- Clipboard -->
  <rect x="220" y="200" width="40" height="60" rx="5" fill="white" stroke="#333" stroke-width="2"/>
  <line x1="230" y1="220" x2="250" y2="220" stroke="#333" stroke-width="2"/>
  <line x1="230" y1="230" x2="250" y2="230" stroke="#333" stroke-width="2"/>
  <line x1="230" y1="240" x2="250" y2="240" stroke="#333" stroke-width="2"/>
  
  <!-- Hand writing -->
  <path d="M240 250C240 250 260 240 270 250" stroke="#f8d8c0" stroke-width="8" stroke-linecap="round"/>
  <path d="M270 250L280 270" stroke="#6b46c1" stroke-width="2" stroke-linecap="round"/>
</svg>