<svg width="120" height="80" viewBox="0 0 120 80" fill="none" xmlns="http://www.w3.org/2000/svg">
  <!-- Butterfly wing left -->
  <path d="M30 40C20 30 15 15 25 10C35 5 45 15 40 30C38 35 35 38 30 40Z" fill="#6b46c1" />
  <!-- Butterfly wing right -->
  <path d="M50 40C60 30 65 15 55 10C45 5 35 15 40 30C42 35 45 38 50 40Z" fill="#6b46c1" />
  <!-- Butterfly body -->
  <path d="M40 10C40 10 38 25 40 40C42 25 40 10 40 10Z" fill="#ec4899" />
  <!-- Text -->
  <text x="60" y="30" font-family="Arial" font-size="12" font-weight="bold" text-anchor="middle" fill="#6b46c1">Healthy Women</text>
  <text x="60" y="45" font-family="Arial" font-size="10" text-anchor="middle" fill="#6b46c1">in the</text>
  <text x="60" y="60" font-family="Arial" font-size="12" font-weight="bold" text-anchor="middle" fill="#6b46c1">Workplace</text>
</svg>