<svg width="400" height="400" viewBox="0 0 400 400" fill="none" xmlns="http://www.w3.org/2000/svg">
  <!-- Background - table -->
  <rect x="50" y="200" width="300" height="150" rx="5" fill="#e5e5e5"/>
  
  <!-- Person 1 (left) -->
  <circle cx="100" cy="150" r="40" fill="#f8d8c0"/> <!-- Head -->
  <path d="M80 130C80 120 90 110 100 110C110 110 120 120 120 130" fill="#6b46c1"/> <!-- Hair -->
  <circle cx="90" cy="140" r="5" fill="#333"/> <!-- Eye -->
  <circle cx="110" cy="140" r="5" fill="#333"/> <!-- Eye -->
  <path d="M90 160C90 160 100 165 110 160" stroke="#333" stroke-width="2" stroke-linecap="round"/> <!-- Smile -->
  <rect x="70" y="190" width="60" height="80" rx="10" fill="#ec4899"/> <!-- Torso -->
  <rect x="80" y="270" width="15" height="60" fill="#f8d8c0"/> <!-- Arm -->
  <rect x="105" y="270" width="15" height="60" fill="#f8d8c0"/> <!-- Arm -->
  
  <!-- Person 2 (middle) -->
  <circle cx="200" cy="150" r="40" fill="#f8d8c0"/> <!-- Head -->
  <path d="M180 130C180 120 190 110 200 110C210 110 220 120 220 130" fill="#6b46c1"/> <!-- Hair -->
  <circle cx="190" cy="140" r="5" fill="#333"/> <!-- Eye -->
  <circle cx="210" cy="140" r="5" fill="#333"/> <!-- Eye -->
  <path d="M190 160C190 160 200 165 210 160" stroke="#333" stroke-width="2" stroke-linecap="round"/> <!-- Smile -->
  <rect x="170" y="190" width="60" height="80" rx="10" fill="#6b46c1"/> <!-- Torso -->
  <rect x="180" y="270" width="15" height="60" fill="#f8d8c0"/> <!-- Arm -->
  <rect x="205" y="270" width="15" height="60" fill="#f8d8c0"/> <!-- Arm -->
  
  <!-- Person 3 (right) -->
  <circle cx="300" cy="150" r="40" fill="#f8d8c0"/> <!-- Head -->
  <path d="M280 130C280 120 290 110 300 110C310 110 320 120 320 130" fill="#6b46c1"/> <!-- Hair -->
  <circle cx="290" cy="140" r="5" fill="#333"/> <!-- Eye -->
  <circle cx="310" cy="140" r="5" fill="#333"/> <!-- Eye -->
  <path d="M290 160C290 160 300 165 310 160" stroke="#333" stroke-width="2" stroke-linecap="round"/> <!-- Smile -->
  <rect x="270" y="190" width="60" height="80" rx="10" fill="#ec4899"/> <!-- Torso -->
  <rect x="280" y="270" width="15" height="60" fill="#f8d8c0"/> <!-- Arm -->
  <rect x="305" y="270" width="15" height="60" fill="#f8d8c0"/> <!-- Arm -->
  
  <!-- Laptop -->
  <rect x="170" y="220" width="60" height="40" rx="5" fill="#333"/>
  <rect x="170" y="260" width="60" height="5" rx="2" fill="#555"/>
  
  <!-- Coffee cups -->
  <rect x="100" y="230" width="20" height="25" rx="5" fill="#fff" stroke="#333" stroke-width="2"/>
  <rect x="280" y="230" width="20" height="25" rx="5" fill="#fff" stroke="#333" stroke-width="2"/>
  
  <!-- Papers/documents -->
  <rect x="130" y="220" width="30" height="40" rx="2" fill="#fff" stroke="#333" stroke-width="1"/>
  <rect x="240" y="220" width="30" height="40" rx="2" fill="#fff" stroke="#333" stroke-width="1"/>
</svg>